<?xml version="1.0" encoding="UTF-8"?>
<svg id="Capa_2" xmlns="http://www.w3.org/2000/svg" viewBox="0 0 85.74 162.76">
  <defs>
    <style>
      .cls-1 {
        fill: #fff;
      }

      .cls-2 {
        fill: #1d1d1b;
      }

      .cls-3 {
        stroke: #020202;
      }

      .cls-3, .cls-4 {
        stroke-miterlimit: 10;
        stroke-width: 2px;
      }

      .cls-4 {
        stroke: #fff;
      }
    </style>
  </defs>
  <g id="Capa_1-2" data-name="Capa_1">
    <g>
      <path class="cls-4" d="M19.04,114.04s-11.36,11.14-10.93,17.14c0,0-6.21,3.36-6.21,6.21v24.36l79.93-1.21v-20.14s-.43-7.71-5.57-7.71c-.83-2.55-1.95-5.41-3.48-8.44-2.32-4.59-4.92-8.26-7.23-11.06-15.5.29-31,.57-46.5.86Z"/>
      <g>
        <path class="cls-1" d="M56.97,151.36c-2.33,0-5.23-2.69-6.79-4.14-5.23-4.85-7.7-10.45-9.51-14.54-1.36-3.08-2.44-5.51-3.86-5.61h-.11c-.92,0-2.03.85-3.23,2.47-4.11,20.52-5.78,20.52-7,20.52-.03,0-.1,0-.14,0-1.33-.13-3.13-.29-3.16-24.66-6.17,1.01-17.89,10.42-18.9,18.17-.06.48-.46.85-.94.87-.02,0-.03,0-.05,0-.46,0-.87-.32-.97-.77-3.28-14.01-.13-17.49,5.58-23.81,1.88-2.08,4-4.43,6.3-7.62,1.22-1.83,10.16-23.96,10.02-26.52-.05-.12-.07-.25-.06-.38.25-9.9-3.48-16.36-6.76-22.06-6.4-11.11-11.47-19.9,16.52-44.82-.95-2.54-.66-6.02.85-9.69,1.6-3.9,4.14-6.93,6.47-7.71.1-.03.21-.05.32-.05s.22.02.32.05c2.27.77,4.91,3.86,6.56,7.69,1.57,3.62,1.93,7.11,1.04,9.73,13.96,13.88,30.84,31.1,12.31,51.33-4.18,6.07-5.32,14.86-3.21,24.79,2.63,12.37,9.98,24.37,17.9,29.18.08.05.15.1.21.17,8.89,9.39,8.59,12.42,7.59,13.89-.06.08-.12.16-.2.22-.79.63-1.75.96-2.86.96h0c-4.63,0-11.26-5.9-16.59-10.65-2.25-2-4.97-4.42-6.25-5.1-.18,1.75-.17,3.67-.15,5.84.01,1.7.02,3.62-.06,5.71,3.24,12.78,1.75,15.41.08,16.26-.37.19-.79.29-1.24.29ZM24.21,85.67h0Z"/>
        <path class="cls-2" d="M41.54,2c3.93,1.33,9.29,11.12,6.75,16.71,14.12,14.04,30.77,30.78,12.7,50.46-11.19,16.14.52,46.67,14.95,55.45,3.09,3.27,9.2,10.13,7.49,12.64-.64.51-1.39.74-2.23.74-7.04,0-20.3-15.92-23.35-15.92-.15,0-.27.04-.37.12-.52,3.48-.13,7.47-.35,12.72,1.64,6.44,3.04,14.02.62,15.27-.24.12-.5.18-.78.18-1.93,0-4.73-2.6-6.11-3.88-9.49-8.81-9.62-20.11-13.98-20.41-.06,0-.11,0-.17,0-.97,0-2.36.55-4.17,3.06-2.65,13.29-4.68,19.93-6.07,19.93-.01,0-.03,0-.04,0-1.52-.14-2.27-8.39-2.25-24.75-6.33.02-19.78,10.56-20.89,19.12-4.22-18.06,2.49-17.82,11.71-30.62,1.01-1.49,11.1-25.84,10.14-27.46.75-29.56-32.73-28.89,9.96-66.64-2.66-5.24,2.28-15.33,6.43-16.71M41.54,0c-.21,0-.43.03-.63.1-3.15,1.05-5.72,4.97-7.08,8.28-1.47,3.6-1.84,7.05-1.07,9.75-12.72,11.38-19.18,19.83-20.91,27.28-1.69,7.3,1.4,12.67,4.67,18.35,3.22,5.59,6.87,11.92,6.63,21.54,0,.18.01.35.06.53-.26,3.25-8.75,23.98-9.86,25.86-2.25,3.11-4.34,5.43-6.19,7.48-5.74,6.35-9.21,10.19-5.81,24.71.21.91,1.02,1.54,1.95,1.54.03,0,.07,0,.1,0,.97-.05,1.76-.78,1.88-1.74.89-6.79,10.93-15.25,16.91-17.04.03,7.06.21,12.53.55,16.29.46,5.08,1.16,7.88,3.51,8.11.06,0,.17.01.23.01,2.23,0,4-1.48,7.94-21.1,1.37-1.79,2.14-1.89,2.29-1.89.86.06,2.03,2.69,3.05,5.02,1.84,4.17,4.37,9.87,9.74,14.87,2.3,2.13,4.96,4.41,7.47,4.41.61,0,1.18-.13,1.7-.4,3.03-1.56,3.17-6.57.47-17.26.08-2.06.07-3.94.06-5.61,0-1.45-.02-2.79.03-4.02,1.36,1.05,3.22,2.7,4.71,4.03,5.74,5.11,12.24,10.9,17.25,10.9,1.34,0,2.51-.4,3.48-1.18.16-.12.29-.27.4-.43,1.29-1.9,1.59-5.33-7.69-15.14-.12-.13-.26-.24-.41-.33-7.69-4.68-14.86-16.41-17.44-28.53-2.04-9.62-.97-18.12,3.02-23.95,8.57-9.39,10.53-19,5.99-29.4-3.69-8.46-11.16-16.08-17.95-22.85.73-2.77.3-6.26-1.25-9.84-1.36-3.14-4.05-7.18-7.16-8.24-.21-.07-.43-.11-.64-.11h0Z"/>
      </g>
      <ellipse class="cls-3" cx="51.93" cy="45.61" rx="12.16" ry="5.68" transform="translate(-.85 90.23) rotate(-81.5)"/>
      <ellipse class="cls-3" cx="30.72" cy="45.61" rx="5.68" ry="12.16" transform="translate(-6.4 5.04) rotate(-8.5)"/>
    </g>
  </g>
</svg>