<?xml version="1.0" encoding="UTF-8"?>
<svg id="Capa_2" xmlns="http://www.w3.org/2000/svg" viewBox="0 0 97.55 148.51">
  <defs>
    <style>
      .cls-1 {
        fill: #fff;
      }

      .cls-2 {
        fill: #1d1d1b;
      }

      .cls-3 {
        stroke: #020202;
      }

      .cls-3, .cls-4 {
        stroke-miterlimit: 10;
        stroke-width: 2px;
      }

      .cls-4 {
        stroke: #fff;
      }
    </style>
  </defs>
  <g id="Capa_1-2" data-name="Capa_1">
    <g>
      <path class="cls-4" d="M31.46,99.79s-11.36,11.14-10.93,17.14c0,0-6.21,3.36-6.21,6.21v24.36l79.93-1.21v-20.14s-.43-7.71-5.57-7.71c-.83-2.55-1.95-5.41-3.48-8.44-2.32-4.59-4.92-8.26-7.23-11.06-15.5.29-31,.57-46.5.86Z"/>
      <g>
        <path class="cls-1" d="M56.15,131.11c-3.38,0-6.06-.87-7.96-2.58-4.34-3.9-4.38-11.69-4.1-16.67-4.22,4.74-13.87,8.99-15.19,9.56-5.65,2.43-11.52,4.6-17.45,6.46-.1.03-.2.05-.3.05-.27,0-.54-.11-.73-.32-.26-.28-.34-.69-.19-1.05,5.92-14.73,12.5-29.04,19.54-42.52,1.36-2.61,2.98-5.64,4.63-8.73,3.3-6.18,7.6-14.25,9.08-17.62-3.04.69-8.55,1.11-12.1,1.11-3.08,0-4.62-.24-5.25-.89-1.59.29-6.41,2.49-9.68,3.99-3.88,1.77-5.53,2.5-6.25,2.59-.04,0-.12,0-.16,0-.67,0-2.45,0-8.97-16.71-.18-.46,0-.97.42-1.22.17-.1,16.85-10.07,19.99-12.38,2.17-1.59,1.97-4.62,1.81-7.05-.04-.58-.07-1.1-.07-1.56,0-.39.23-.75.58-.91,4.54-2.09,9.27-3.84,14.08-5.2,1.17-.33,2.21-.6,3.14-.84,3.24-.84,4.87-1.26,6-2.68,2-2.51,1.65-7.2-1-13.56-.16-.39-.06-.84.25-1.13.19-.17.43-.26.67-.26.16,0,.33.04.48.12l10.29,5.57c.1.06.19.13.27.21l7.29,8.14c.83.86,20.96,21.9,24,31.66,1.43,4.58,1.16,18.15.47,45.96v.3c-.11,4.07-.2,7.92.7,13.06,1.12,6.37,3.19,11.3,4.56,14.56,1.43,3.42,2.23,5.3.88,6.34-.33.26-.74.38-1.21.38h0c-3.23,0-10.91-7.22-12.42-8.67-3.34-3.21-5.43-5.87-6.96-7.81-2.13-2.71-3.2-4.07-5.33-4.35-.26-.03-.53-.05-.79-.05-4.02,0-8.25,3.95-10.19,7.67-3.88,7.43.63,14.98.82,15.3.18.29.19.65.05.96-.15.31-.44.52-.78.56-1.01.12-1.99.19-2.9.19Z"/>
        <path class="cls-2" d="M46.93,2c3.43,1.86,6.86,3.71,10.29,5.57,2.43,2.71,4.86,5.43,7.29,8.14,0,0,20.79,21.64,23.79,31.29,1.36,4.38,1.11,18.12.43,45.64-.1,4.26-.23,8.2.72,13.56,2.12,12,7.42,18.7,5.82,19.94-.15.12-.36.18-.6.18-2.34,0-8.45-5.25-11.72-8.39-7.94-7.62-8.52-11.86-12.86-12.43-.31-.04-.62-.06-.92-.06-4.53,0-9,4.23-11.08,8.2-4.1,7.85.57,15.81.86,16.29-1.01.12-1.93.18-2.78.18-3.76,0-5.95-1.11-7.3-2.32-6.06-5.45-3.01-19.99-3.63-20.02,0,0,0,0,0,0-.13,0-.22.52-.22.52-1.03,5.56-16.5,12.21-16.5,12.21-4.6,1.98-10.44,4.26-17.36,6.43,7.25-18.04,14.2-32.28,19.5-42.43,5.47-10.47,15.07-27.83,14.3-28.32-.01,0-.02,0-.04,0-.03,0-.07.01-.12.04-1.4.84-8.56,1.59-13.42,1.59-2.58,0-4.51-.21-4.58-.73-.02-.13-.15-.19-.38-.19-2.35,0-14.77,6.43-16.33,6.62-.01,0-.02,0-.03,0-1.76,0-8.04-16.07-8.04-16.07,0,0,16.86-10.07,20.07-12.43,3.18-2.33,2.15-6.95,2.14-9.43,3.48-1.6,8.18-3.52,13.93-5.14,5.42-1.53,7.94-1.72,9.64-3.86,1.34-1.68,2.92-5.49-.86-14.57M46.93,0c-.48,0-.96.18-1.34.52-.63.57-.83,1.47-.51,2.25,2.47,5.92,2.87,10.38,1.14,12.56-.88,1.1-2.09,1.46-5.47,2.33-.92.24-1.97.51-3.16.84-4.85,1.37-9.64,3.14-14.22,5.25-.71.33-1.16,1.04-1.16,1.82,0,.5.04,1.05.08,1.63.18,2.78.2,5.01-1.4,6.18-3.1,2.27-19.75,12.22-19.91,12.32-.84.5-1.19,1.53-.84,2.44,6.77,17.35,8.58,17.35,9.9,17.35.08,0,.2,0,.28-.02.87-.11,2.4-.78,6.54-2.68,2.61-1.19,7.21-3.3,9.03-3.81,1.19.73,3.21.81,5.48.81,2.5,0,6.96-.24,10.37-.77-1.87,3.87-5.43,10.55-8.24,15.81-1.68,3.15-3.26,6.12-4.63,8.73-7.06,13.51-13.65,27.84-19.58,42.61-.29.72-.14,1.54.39,2.1.38.42.92.64,1.47.64.2,0,.4-.03.6-.09,5.96-1.87,11.87-4.06,17.55-6.5v-.02c1.56-.66,8.97-3.96,13.71-8.05-.08,5.01.54,11.42,4.52,15,2.09,1.88,5,2.83,8.63,2.83.95,0,1.96-.07,3.02-.19.67-.08,1.26-.5,1.56-1.11s.26-1.33-.09-1.91c-.18-.3-4.41-7.39-.79-14.32,1.81-3.46,5.68-7.13,9.3-7.13.22,0,.45.01.66.04,1.65.22,2.49,1.19,4.68,3.97,1.55,1.97,3.67,4.66,7.05,7.91,2.8,2.69,9.68,8.95,13.11,8.95.87,0,1.47-.32,1.82-.59,1.95-1.51.94-3.9-.57-7.52-1.35-3.22-3.39-8.09-4.5-14.35-.89-5.04-.8-8.83-.7-12.86v-.3c.75-30,.89-41.77-.51-46.29-3.08-9.9-23.06-30.83-24.23-32.05l-7.26-8.12c-.15-.17-.34-.32-.54-.42l-5.14-2.79L47.88.24c-.3-.16-.63-.24-.95-.24h0Z"/>
      </g>
      <ellipse class="cls-3" cx="37.07" cy="33.82" rx="12.16" ry="5.68" transform="translate(-10.17 50.76) rotate(-62.1)"/>
    </g>
  </g>
</svg>