<?xml version="1.0" encoding="UTF-8"?>
<svg id="Capa_2" xmlns="http://www.w3.org/2000/svg" viewBox="0 0 101.07 143.42">
  <defs>
    <style>
      .cls-1 {
        fill: #fff;
      }

      .cls-1, .cls-2 {
        stroke: #020202;
      }

      .cls-1, .cls-2, .cls-3 {
        stroke-miterlimit: 10;
        stroke-width: 2px;
      }

      .cls-3 {
        stroke: #fff;
      }
    </style>
  </defs>
  <g id="Capa_1-2" data-name="Capa_1">
    <g>
      <path class="cls-3" d="M29.53,94.69s-11.36,11.14-10.93,17.14c0,0-6.21,3.36-6.21,6.21v24.36l79.93-1.21v-20.14s-.43-7.71-5.57-7.71c-.83-2.55-1.95-5.41-3.48-8.44-2.32-4.59-4.92-8.26-7.23-11.06-15.5.29-31,.57-46.5.86Z"/>
      <path class="cls-1" d="M51.52,1.01c2.93-.08,10.68.12,17.19,5.51,5.06,4.19,6.81,9.38,7.88,12.49,2.08,6.04,1.86,11.14,1.61,15.91-.63,12.02-3.96,12.69-2.89,17.68,2.7,12.64,25.62,15.33,24.74,21.22-.49,3.29-7.98,4.7-9.47,4.98-6.41,1.21-11.45-1.25-13.02-2.09,3.25,9.2,7.05,15.98,9.96,20.52,5.33,8.31,10.56,13.52,8.97,19.14-.89,3.14-3.45,5.16-5.35,6.34-1.76-.05-4.34-.33-7.16-1.48-7.31-3-8.34-8.72-11.57-8.36-4.14.47-7.29,10.39-12.21,16.88-.49.65-1.55,1.98-3.38,2.73-1.55.64-3.03.61-4.02.48-4.17-.24-6.34-1.66-7.55-2.89-3.85-3.92-1.33-9.39-4.82-19.29-1.34-3.79-2.44-6.78-4.82-7.39-.8-.21-3.31-.54-10.29,7.07-8.36,9.13-10.86,16.3-13.8,15.7-1.43-.29-2.42-2.22-3.14-4.49-.56-1.74-1.21-4.46-1-7.72.47-7.4,7.42-11.8,14.36-22.5,4.06-6.27,8.63-15.28,6.78-16.84-.79-.67-2.14.87-6.27,2.09-1.11.33-6.6,1.87-13.18.48-4.2-.89-7.66-1.62-8.04-3.38-1.12-5.22,27.14-9.29,30.05-23.95.86-4.3-1.15-6.1-.63-19.35.16-4.22.52-6.89,1.14-9.77,1.83-8.47,4.27-11.55,5.53-12.9,4.9-5.3,11.49-6.48,14.4-6.81Z"/>
      <ellipse class="cls-2" cx="45.4" cy="32.28" rx="5.68" ry="12.16" transform="translate(-4.27 7.06) rotate(-8.5)"/>
      <ellipse class="cls-2" cx="61.76" cy="32.28" rx="12.16" ry="5.68" transform="translate(20.71 88.59) rotate(-81.5)"/>
    </g>
  </g>
</svg>