<?xml version="1.0" encoding="UTF-8"?>
<svg id="Capa_2" xmlns="http://www.w3.org/2000/svg" viewBox="0 0 94.88 177.17">
  <defs>
    <style>
      .cls-1 {
        stroke: #1d1d1b;
      }

      .cls-1, .cls-2, .cls-3 {
        fill: #fff;
      }

      .cls-1, .cls-3 {
        stroke-miterlimit: 10;
        stroke-width: 2px;
      }

      .cls-3 {
        stroke: #fff;
      }
    </style>
  </defs>
  <g id="Capa_1-2" data-name="Capa_1">
    <g>
      <path class="cls-1" d="M25.95,128.44s-11.36,11.14-10.93,17.14c0,0-6.21,3.36-6.21,6.21v24.36l79.93-1.21v-20.14s-.43-7.71-5.57-7.71c-.83-2.55-1.95-5.41-3.48-8.44-2.32-4.59-4.92-8.26-7.23-11.06-15.5.29-31,.57-46.5.86Z"/>
      <g>
        <path d="M54.31,167.54c-.18,0-.36-.03-.52-.09-1.33-.52-.87-2.04-.29-3.96.85-2.83,2.14-7.09.1-10.79-1.3-2.35-4.32-5.15-6.98-7.61-2.56-2.37-4.78-4.43-5.53-6.05-.05-.01-.14-.03-.28-.03-2.25,0-8.39,3.12-13.14,6.03-7.28,4.45-13.57,8.3-13.83,13.5-.05,1.02.13,1.89.3,2.66.24,1.14.49,2.32-.47,3.18-.52.46-1.27.69-2.24.69-3.1,0-8.38-2.42-9.96-6.37-1.83-4.58,1.99-9.18,9.59-18.33,4.12-4.96,9.25-11.13,15.33-19.43,7.77-10.61,9.33-14.09,9.89-17.88,1.25-8.48-1.98-17.51-9.59-26.87-.25-.3-.29-.72-.12-1.07,1.43-2.97,3.62-8.98,2.17-15.92-1.94-9.29-9.55-16.89-19.87-19.81-.36-.1-.63-.4-.71-.76-.08-.37.06-.74.35-.98,3.46-2.8,7.36-4.87,11.59-6.13,3.1-.92,6.32-1.39,9.57-1.39,1.76,0,3.53.14,5.27.41.71-2.27,1.75-4.4,3.1-6.35,1.28-1.84,2.82-3.48,4.57-4.89-.86-2.08-2.91-8.03-.61-12.69,1.36-2.75,3.96-4.55,7.75-5.33.92-.19,1.84-.28,2.72-.28,2.04,0,3.84.49,5.35,1.47,4.67,3.01,6.1,10.11,3.45,16.73,1.56,1.48,2.87,3.18,3.9,5.07,1.09,2,1.82,4.14,2.2,6.39.46,0,1.09-.02,1.85-.02,8.78,0,23.66.97,24.63,7.48.07.5-.24.98-.73,1.11-10.59,2.84-18.32,10.78-19.68,20.23-1,6.96,1.8,12.74,3.56,15.56.24.38.19.88-.12,1.21-7.52,8.08-11.11,15.95-10.66,23.37.49,8.2,5.71,13.87,11.24,19.88,6.04,6.56,12.89,14,14.31,25.86,1.12,9.34-1.53,17.65-3.33,19.68-.43.48-.88.72-1.36.72-1.43-.03-1.65-1.57-2.05-4.38-.59-4.12-1.57-11.01-6.17-17.59-1.69-2.42-7.74-10.3-14.7-10.3-.46,0-.92.03-1.36.1-.79.12-4.78.86-5.99,3.59-.83,1.88.13,3.68,1.77,6.47,1.58,2.7,3.55,6.05,3.46,10.5-.13,6.91-5.41,13.38-7.75,13.38h0Z"/>
        <path class="cls-2" d="M52.49,2c1.46,0,3.21.28,4.81,1.31,4.16,2.68,5.76,9.47,2.8,16.15,1.17,1.03,2.84,2.75,4.22,5.28,1.51,2.77,2.02,5.33,2.21,6.93,0,0,1.04-.04,2.72-.04,6.55,0,22.74.61,23.64,6.63-10.95,2.94-19,11.24-20.41,21.05-1.12,7.79,2.3,13.99,3.7,16.23-9.54,10.26-11.27,18.4-10.93,24.11,1.06,17.78,22.89,23.57,25.55,45.8,1.24,10.32-2.25,19.29-3.69,19.29,0,0,0,0,0,0-1.6-.03-.16-11.19-7.39-21.54-1.38-1.97-7.84-10.72-15.52-10.72-.5,0-1.01.04-1.52.12-.88.14-5.32.94-6.75,4.18-2.16,4.88,5.3,9.03,5.14,17.36-.13,6.79-5.26,12.4-6.75,12.4-.06,0-.11,0-.16-.03-1.35-.52,3.76-8.08.32-14.3-2.6-4.7-11.15-10.59-12.5-13.66-.01-.03-.04-.1-.11-.18-.2-.25-.57-.37-1.05-.37-2.82,0-9.79,3.81-13.66,6.17-7.55,4.62-14.02,8.57-14.3,14.3-.13,2.62,1.1,4.3.16,5.14-.33.3-.89.44-1.58.44-2.76,0-7.65-2.28-9.03-5.74-2.49-6.24,7.58-13.29,24.8-36.8,8.05-10.99,9.5-14.43,10.07-18.32,1.69-11.46-4.96-21.69-9.8-27.64,1.23-2.56,3.85-8.91,2.25-16.55-2.03-9.7-10.02-17.58-20.57-20.57,2.19-1.77,5.96-4.37,11.25-5.95,3.44-1.02,6.61-1.35,9.29-1.35,2.49,0,4.55.28,5.98.54.46-1.7,1.36-4.25,3.21-6.91,1.72-2.47,3.62-4.13,4.98-5.14,0,0-7.07-14.62,6.11-17.36.59-.12,1.48-.26,2.52-.26M52.49,0h0c-.95,0-1.94.1-2.92.3-4.11.85-6.95,2.83-8.45,5.87-2.25,4.56-.67,10.18.32,12.82-1.59,1.35-3,2.91-4.2,4.63-1.25,1.8-2.25,3.75-2.97,5.81-1.52-.2-3.05-.3-4.58-.3-3.35,0-6.67.48-9.86,1.43-4.36,1.3-8.38,3.42-11.94,6.31-.58.47-.85,1.22-.7,1.96.15.73.69,1.32,1.41,1.52,9.95,2.83,17.3,10.13,19.16,19.06,1.39,6.64-.72,12.42-2.09,15.28-.34.7-.24,1.53.25,2.13,7.43,9.12,10.58,17.9,9.38,26.09-.53,3.62-2.06,6.99-9.71,17.43-6.06,8.28-11.18,14.44-15.29,19.39-7.86,9.46-11.8,14.21-9.75,19.34,1.73,4.34,7.51,7,10.89,7,1.22,0,2.2-.32,2.91-.95,1.39-1.24,1.04-2.91.78-4.13-.16-.74-.32-1.51-.28-2.4.23-4.67,6.31-8.39,13.35-12.7,5.18-3.17,10.3-5.6,12.3-5.86,1,1.66,3,3.51,5.45,5.79,2.61,2.42,5.56,5.16,6.78,7.37,1.84,3.32.62,7.35-.18,10.02-.58,1.93-1.31,4.33.89,5.19.28.11.58.16.89.16,3.11,0,8.61-7.1,8.75-14.36.09-4.73-1.96-8.22-3.6-11.02-1.52-2.59-2.35-4.13-1.71-5.56,1.02-2.3,4.8-2.94,5.22-3.01.4-.06.81-.09,1.21-.09,5.14,0,10.54,5.1,13.88,9.87,4.46,6.38,5.42,13.13,6,17.15.41,2.9.74,5.19,3,5.23h0c.81,0,1.52-.36,2.14-1.06,2.17-2.44,4.69-11.14,3.57-20.46-1.46-12.18-8.42-19.75-14.56-26.42-5.64-6.13-10.51-11.42-10.98-19.26-.43-7.14,3.07-14.75,10.4-22.63.61-.66.71-1.65.23-2.42-1.69-2.71-4.37-8.25-3.42-14.89,1.3-9.05,8.74-16.67,18.95-19.41.98-.26,1.61-1.22,1.46-2.23-1.03-6.89-14.5-8.33-25.62-8.33-.37,0-.72,0-1.02,0-.42-2.04-1.14-4.01-2.15-5.85-.97-1.79-2.18-3.41-3.61-4.85,2.49-6.88.84-14.14-4.08-17.31-1.68-1.08-3.66-1.63-5.89-1.63h0Z"/>
      </g>
      <ellipse class="cls-3" cx="61.05" cy="51.66" rx="12.16" ry="5.68" transform="translate(.94 104.4) rotate(-81.5)"/>
      <ellipse class="cls-3" cx="41.77" cy="51.66" rx="5.68" ry="12.16" transform="translate(-7.18 6.74) rotate(-8.5)"/>
    </g>
  </g>
</svg>