<?xml version="1.0" encoding="UTF-8"?>
<svg id="Capa_2" xmlns="http://www.w3.org/2000/svg" viewBox="0 0 85.28 203.46">
  <defs>
    <style>
      .cls-1 {
        stroke: #1d1d1b;
      }

      .cls-1, .cls-2, .cls-3 {
        fill: #fff;
      }

      .cls-1, .cls-3 {
        stroke-miterlimit: 10;
        stroke-width: 2px;
      }

      .cls-3 {
        stroke: #fff;
      }
    </style>
  </defs>
  <g id="Capa_1-2" data-name="Capa_1">
    <g>
      <path class="cls-1" d="M19.31,154.73s-11.36,11.14-10.93,17.14c0,0-6.21,3.36-6.21,6.21v24.36l79.93-1.21v-20.14s-.43-7.71-5.57-7.71c-.83-2.55-1.95-5.41-3.48-8.44-2.32-4.59-4.92-8.26-7.23-11.06-15.5.29-31,.57-46.5.86Z"/>
      <g>
        <path d="M45.34,190.74c-.51,0-1.25-.24-2.88-2.03-4.56-5-12.71-18.35-11.82-28.02,0-.3,0-.55,0-.75-.73.93-1.82,2.65-2.81,4.23-2.36,3.75-5.59,8.88-9.42,12.81-.99,1.08-9.97,10.75-14.48,10.75-.56,0-1.06-.13-1.49-.4-2.71-1.69-1.07-7.59.82-14.43l1.55-5.62c6.75-24.49,10.46-37.97,9.03-52.59-.32-3.24-.8-5.72-1.54-9.48-1-5.1-2.36-12.08-4.33-25.92-.43-3-.76-5.47-.98-7.12-.04-.33.08-.66.33-.88.7-.62,1.4-1.24,2.09-1.88,7.78-7.08,15.03-14.93,21.57-23.35-1.15-1.48-3.07-4.66-2.5-8.73.13-.96.54-3.86,2.78-5.9.92-.84,1.78-1.2,2.48-1.49.72-.3,1.16-.48,1.53-1.08.13-.22.41-.66.28-3.99-.06-1.54-.18-3.09-.36-4.65,0,0-8.38.14-8.39.14-.27,0-.53-.11-.71-.3-.19-.2-.3-.46-.29-.74l.32-8.68c.02-.52.44-.94.96-.96l7.96-.28-.56-7.32c-.02-.28.07-.55.26-.76.19-.2.46-.32.73-.32h9.64c.55,0,1,.45,1,1v9.02h8.64c.55,0,1,.45,1,1v7.66c0,.55-.45,1-1,1h-8.64v7.41c1.59.76,5.64,3.06,6.93,7.38.97,3.27.14,6.9-2.47,10.79,2.04,2.18,4.1,4.37,6.17,6.56,3.84,4.06,6.07,6.41,6.8,7.16,1.89,1.94,3.42,3.45,4.67,4.69,3.86,3.82,5.15,5.11,5.84,7.79.88,3.48-.06,6.4-.75,8.53l-.07.22c-.03.08-2.57,8.15-5.68,29.86-1.41,9.87.16,17.33,2.33,27.64,2.96,14.05,8.28,25.95,11.46,33.06,2.85,6.37,3.71,8.29,2.25,9.15-.2.12-.44.18-.68.18h0c-1.06,0-2.1-1.12-4.34-3.65-2.19-2.46-5.49-6.18-7.56-6.18-.17,0-.32.03-.47.08-1.44.54-1.84,3.7-2.13,6.01-.31,2.43-.53,4.19-1.97,4.33-.03,0-.14,0-.14,0-1.22,0-2.66-.97-5.67-12.48-1.01-3.85-2.04-8.38-2.51-10.61-7.05,2.94-11.46,6.62-13.47,11.24-2.17,4.98-1.63,10.99,1.74,19.48.19.49-.02,1.04-.5,1.27-.17.08-.35.12-.55.12h0Z"/>
        <path class="cls-2" d="M45.13,2v10.02h9.64v7.66h-9.64v9.06s13.18,5.08,4.18,17.62c2.23,2.38,4.47,4.76,6.73,7.15,4.07,4.31,6.11,6.46,6.81,7.17,7.58,7.78,9.43,8.81,10.25,12.03.84,3.32-.14,6.13-.8,8.2,0,0-2.56,7.93-5.72,30.03-1.43,9.98.13,17.5,2.34,27.99,4.89,23.19,15.95,40.1,14.18,41.14-.05.03-.11.04-.17.04-1.68,0-7.77-9.83-11.91-9.83-.28,0-.55.05-.81.14-3.41,1.26-2.27,10.13-3.86,10.29-.01,0-.03,0-.04,0-2.62,0-7.45-23.47-7.45-23.47-19.07,7.45-18.61,19.33-13.4,32.46-.03.02-.07.02-.12.02-2.03,0-14.79-17.24-13.71-28.95.05-1.72-.15-2.46-.57-2.46-1.62,0-6.54,10.93-13.36,17.95-.44.48-9.66,10.44-13.76,10.44-.36,0-.69-.08-.96-.25-2.24-1.39-.11-8.3,1.66-14.76,7.39-26.89,11.74-41.5,10.21-57.13-.74-7.6-2.41-11.13-5.87-35.44-.43-2.99-.76-5.47-.98-7.11.7-.62,1.41-1.25,2.11-1.89,8.49-7.73,15.82-15.86,22.18-24.11-.47-.52-3.44-3.92-2.79-8.57.13-.94.49-3.51,2.46-5.3,1.73-1.58,3.18-1.17,4.18-2.79.29-.47.56-1.15.43-4.55-.05-1.42-.18-3.34-.48-5.62-3.09.05-6.18.11-9.27.16l.32-8.68,9-.32-.64-8.36h9.64M45.13,0h-9.64c-.56,0-1.09.23-1.47.64-.38.41-.57.96-.53,1.51l.48,6.28-6.92.25c-1.05.04-1.89.88-1.93,1.92l-.32,8.68c-.02.55.19,1.08.57,1.47.38.38.89.6,1.43.6.01,0,.02,0,.03,0l7.46-.13c.13,1.23.21,2.46.26,3.67.11,2.88-.09,3.36-.13,3.43-.18.3-.34.38-1.06.68-.72.3-1.71.71-2.77,1.67-2.5,2.28-2.95,5.46-3.1,6.5-.55,3.91,1.01,7.06,2.23,8.85-6.38,8.15-13.44,15.75-20.99,22.63-.69.63-1.39,1.25-2.08,1.87-.5.44-.75,1.1-.66,1.76.22,1.65.56,4.13.98,7.13,1.98,13.86,3.34,20.86,4.34,25.97.73,3.73,1.21,6.2,1.52,9.39,1.41,14.44-2.29,27.86-9,52.24l-1.15,4.17-.4,1.45c-2.09,7.52-3.74,13.46-.39,15.54.59.36,1.27.55,2.02.55,4.7,0,12.81-8.44,15.22-11.07,3.89-4,7.15-9.18,9.53-12.95.29-.47.6-.96.91-1.45.5,10.08,8.28,21.9,12.12,26.12,1.55,1.7,2.56,2.36,3.63,2.36.35,0,.67-.07.98-.22.95-.45,1.38-1.56,1-2.54-3.26-8.23-3.8-14-1.75-18.71,1.8-4.13,5.68-7.5,11.84-10.24.5,2.27,1.32,5.86,2.27,9.49,2.94,11.23,4.48,13.2,6.64,13.2.07,0,.18,0,.24-.01,2.24-.22,2.54-2.64,2.87-5.2.18-1.46.62-4.88,1.49-5.2.02,0,.05-.02.12-.02,1.63,0,5,3.8,6.81,5.85,2.35,2.65,3.54,3.98,5.09,3.98.42,0,.83-.11,1.19-.32,1.91-1.12,1.01-3.58.58-4.76-.51-1.4-1.35-3.28-2.42-5.67-3.16-7.07-8.46-18.91-11.4-32.86-2.15-10.22-3.71-17.6-2.32-27.29,3.08-21.55,5.61-29.6,5.64-29.7l.07-.22c.69-2.12,1.72-5.32.77-9.08-.75-2.95-2.21-4.4-6.1-8.26-1.24-1.23-2.77-2.75-4.65-4.68-.71-.73-2.86-3-6.79-7.15-1.89-2-3.77-3.99-5.63-5.98,2.44-3.91,3.17-7.59,2.16-10.97-1.26-4.23-4.92-6.67-6.89-7.71v-5.79h7.64c1.1,0,2-.9,2-2v-7.66c0-1.1-.9-2-2-2h-7.64V2c0-1.1-.9-2-2-2h0Z"/>
      </g>
      <ellipse class="cls-3" cx="52.52" cy="78.39" rx="12.16" ry="5.68" transform="translate(-32.77 118.75) rotate(-81.5)"/>
      <ellipse class="cls-3" cx="32.22" cy="78.39" rx="5.68" ry="12.16" transform="translate(-11.23 5.62) rotate(-8.5)"/>
    </g>
  </g>
</svg>