<?xml version="1.0" encoding="UTF-8"?>
<svg id="Capa_2" xmlns="http://www.w3.org/2000/svg" viewBox="0 0 87.66 143.12">
  <defs>
    <style>
      .cls-1 {
        stroke: #1d1d1b;
      }

      .cls-1, .cls-2, .cls-3 {
        stroke-width: 2px;
      }

      .cls-1, .cls-3 {
        fill: #fff;
        stroke-miterlimit: 10;
      }

      .cls-2 {
        stroke-linecap: round;
        stroke-linejoin: round;
      }

      .cls-2, .cls-3 {
        stroke: #fff;
      }
    </style>
  </defs>
  <g id="Capa_1-2" data-name="Capa_1">
    <g>
      <path class="cls-1" d="M20.28,94.39s-11.36,11.14-10.93,17.14c0,0-6.21,3.36-6.21,6.21v24.36l79.93-1.21v-20.14s-.43-7.71-5.57-7.71c-.83-2.55-1.95-5.41-3.48-8.44-2.32-4.59-4.92-8.26-7.23-11.06-15.5.29-31,.57-46.5.86Z"/>
      <path class="cls-2" d="M1.03,111.24c-.13-1.68-.04-4.4,7.36-19.85,7.07-14.78,8.35-15.11,10.02-20.32,2.97-9.27,1.26-15.57-.67-30.22-1.25-9.46-2.67-22.99-3.18-39.85,2.88,2.46,15.31,12.49,33.75,11.89,16.44-.53,27.37-9.18,30.54-11.89-3.32,15.96-6.64,31.93-9.96,47.89-.56,5.24-.85,12.18.06,20.25.81,7.2,1.6,14.17,5.41,21.86,1.19,2.41,2.34,4.2,3.44,5.64,5.66,7.45,7.42,8.62,8.43,11.37,3.27,8.9-11.5,24.48-15.72,22.53-3.31-1.54,2.78-12.54-3.51-24.98-1.09-2.16-5.02-9.92-10.95-10.06-5.83-.14-11.53,7.14-12.21,13.82-.84,8.21,6.07,13.71,4.18,15.75-1.59,1.72-8.38-.14-12.21-4.82-6.42-7.85-.79-19.06-4.18-20.57-3.18-1.42-12.33,6.6-14.14,16.71-1.6,8.94,3.4,14.87,1.61,16.07-2.61,1.75-17-8.28-18.02-21.22"/>
      <ellipse class="cls-3" cx="34.15" cy="32.98" rx="5.68" ry="12.16" transform="translate(-4.5 5.41) rotate(-8.5)"/>
      <ellipse class="cls-3" cx="56.01" cy="32.98" rx="12.16" ry="5.68" transform="translate(15.11 83.5) rotate(-81.5)"/>
    </g>
  </g>
</svg>